<svg width="32" height="34" viewBox="0 0 32 34" fill="none" xmlns="http://www.w3.org/2000/svg">
<path fill-rule="evenodd" clip-rule="evenodd" d="M6.53378 11.1905C13.6215 12.1908 19.1653 9.60738 23.0259 3.47506C23.0452 3.44432 23.0629 3.4128 23.079 3.38064C24.5647 5.05244 25.4671 7.25417 25.4671 9.66667V13.1333C25.4671 16.637 23.546 19.7867 20.5678 21.4276C20.1797 21.158 19.7083 21 19.2 21C17.8746 21 16.8 22.0745 16.8 23.4C16.8 24.7255 17.8746 25.8 19.2 25.8C19.8713 25.8 20.4783 25.5244 20.9138 25.0802C20.2648 27.119 18.3103 28.6 16 28.6C13.1619 28.6 10.8607 26.3649 10.8572 23.6064L11.6161 21.5258C8.53383 19.9146 6.53378 16.7082 6.53378 13.1333V11.1905ZM6.55254 9.06581C6.86247 4.11747 10.974 0.200001 16.0004 0.200001C18.119 0.200001 20.0749 0.895897 21.6523 2.07157C21.6038 2.12142 21.5593 2.1779 21.5197 2.24082C18.0452 7.75985 13.1344 10.0258 6.64558 9.07413C6.61438 9.06956 6.58333 9.06681 6.55254 9.06581ZM8.88106 24.6536C9.40369 28.0197 12.3919 30.6 16 30.6C19.6089 30.6 22.5976 28.0186 23.1194 24.6515L26.9556 25.425C28.4795 25.7223 29.6937 26.8746 30.0703 28.3809L31.1766 32.806C31.3028 33.3109 30.9209 33.8 30.4004 33.8H1.60044C1.07999 33.8 0.6981 33.3109 0.824329 32.806L1.92917 28.3866C2.30666 26.8766 3.52574 25.7228 5.04645 25.4303L8.88106 24.6536Z" fill="#1565D8"/>
</svg>
