<svg width="25" height="24" viewBox="0 0 25 24" fill="none" xmlns="http://www.w3.org/2000/svg">
<path fill-rule="evenodd" clip-rule="evenodd" d="M2.3335 7C2.3335 5.34315 3.67664 4 5.3335 4H19.3335C20.9904 4 22.3335 5.34315 22.3335 7V17C22.3335 18.6569 20.9904 20 19.3335 20H5.3335C3.67664 20 2.3335 18.6569 2.3335 17V7ZM5.3335 6H19.3335C19.8858 6 20.3335 6.44771 20.3335 7V8H4.3335V7C4.3335 6.44772 4.78121 6 5.3335 6ZM4.3335 10V17C4.3335 17.5523 4.78121 18 5.3335 18H19.3335C19.8858 18 20.3335 17.5523 20.3335 17V10H4.3335Z" fill="#FCFCFC"/>
<path fill-rule="evenodd" clip-rule="evenodd" d="M6.3335 15C6.3335 14.4477 6.78121 14 7.3335 14H13.3335C13.8858 14 14.3335 14.4477 14.3335 15C14.3335 15.5523 13.8858 16 13.3335 16H7.3335C6.78121 16 6.3335 15.5523 6.3335 15Z" fill="#FCFCFC"/>
</svg>
