<svg width="20" height="20" viewBox="0 0 20 20" fill="none" xmlns="http://www.w3.org/2000/svg">
<g id="Chat">
<path id="Path" d="M7.2002 12.3169L7.878 11.9733H10.0002C11.9884 11.9733 13.6002 10.3615 13.6002 8.37327V7.19995H14.8002C16.3466 7.19995 17.6002 8.45355 17.6002 9.99995V13.1922C17.6002 14.1491 16.9217 14.9476 16.0196 15.1327L16.0206 16.4011C16.0209 16.6997 15.7058 16.8933 15.4396 16.7582L12.3172 15.1733H10.0002C8.4538 15.1733 7.2002 13.9197 7.2002 12.3733L7.2002 12.3169Z" fill="#959EAD"/>
<path id="Path_2" d="M3.97948 12.4011L3.98074 10.8946C3.02839 10.4341 2.3999 9.46317 2.3999 8.37327V5.99995C2.3999 4.45355 3.6535 3.19995 5.1999 3.19995H9.9999C11.5463 3.19995 12.7999 4.45355 12.7999 5.99995V8.37327C12.7999 9.91966 11.5463 11.1733 9.9999 11.1733H7.68649L4.56036 12.7582C4.29415 12.8932 3.97923 12.6996 3.97948 12.4011Z" fill="#959EAD"/>
</g>
</svg>
