<svg width="192" height="192" viewBox="0 0 192 192" fill="none" xmlns="http://www.w3.org/2000/svg">
<g id="Icon">
<g id="Border" opacity="0.06">
<rect id="Shape" width="192" height="192" rx="16" fill="#1565D8"/>
</g>
<g id="Icon_Email">
<g id="Group">
<path id="path" fill-rule="evenodd" clip-rule="evenodd" d="M146.8 83.3478V128.5C146.8 137.779 139.278 145.3 130 145.3H62.7999C53.5216 145.3 45.9999 137.779 45.9999 128.5V83.3478C45.9999 81.0042 47.1493 78.8096 49.0764 77.4684L61.3455 68.93C62.4334 68.1729 63.9292 68.4411 64.6863 69.529C65.4435 70.617 65.1753 72.1128 64.0873 72.8699L51.8182 81.4083C51.1893 81.8459 50.8122 82.5537 50.8002 83.3105C51.5508 83.0452 52.3585 82.9009 53.1999 82.9009C54.4839 82.9009 55.7446 83.2443 56.8512 83.8954L96.3999 107.166L135.949 83.8954C137.855 82.7739 140.066 82.6298 142 83.3124C141.988 82.5549 141.611 81.8463 140.982 81.4083L129.064 73.1143C127.976 72.3572 127.708 70.8614 128.465 69.7735C129.222 68.6855 130.718 68.4174 131.806 69.1745L143.723 77.4684C145.651 78.8096 146.8 81.0042 146.8 83.3478Z" fill="#1565D8"/>
<path id="path_2" fill-rule="evenodd" clip-rule="evenodd" d="M60.9999 81.9998V57.9998C60.9999 51.3723 66.3725 45.9998 72.9999 45.9998H121C127.627 45.9998 133 51.3723 133 57.9998V81.9998L96.9999 103.6L60.9999 81.9998ZM82.5999 69.9998H111.4C112.725 69.9998 113.8 68.9252 113.8 67.5998C113.8 66.2743 112.725 65.1998 111.4 65.1998H82.5999C81.2745 65.1998 80.1999 66.2743 80.1999 67.5998C80.1999 68.9252 81.2745 69.9998 82.5999 69.9998ZM113.8 81.9998C113.8 83.3252 112.725 84.3998 111.4 84.3998H82.5999C81.2745 84.3998 80.1999 83.3252 80.1999 81.9998C80.1999 80.6743 81.2745 79.5998 82.5999 79.5998H111.4C112.725 79.5998 113.8 80.6743 113.8 81.9998Z" fill="#B8D0F3"/>
</g>
</g>
</g>
</svg>
