<svg width="32" height="34" viewBox="0 0 32 34" fill="none" xmlns="http://www.w3.org/2000/svg">
<path d="M12.0881 15.535L17.6116 21.3636C18.2104 21.9955 19.295 22.0857 20.5032 21.4903C23.5781 20.2154 24.6012 19.9046 25.1853 20.5209L31.5345 27.2209C32.2851 28.0128 32.0848 29.332 31.2455 30.2177C26.8875 34.8163 19.8042 34.8163 15.4463 30.2177L3.58559 17.7019C-0.750536 13.1263 -0.750536 5.72372 3.58559 1.14809C4.44257 0.243774 5.75864 0.0212674 6.53744 0.843085L12.8867 7.54302C13.437 8.12373 13.1419 9.20536 11.9404 12.4281C11.3818 13.6861 11.4713 14.8842 12.0881 15.535Z" fill="#1565D8"/>
</svg>
