<svg width="20" height="20" viewBox="0 0 20 20" fill="none" xmlns="http://www.w3.org/2000/svg">
<path fill-rule="evenodd" clip-rule="evenodd" d="M9.66656 0C7.45743 0 5.66656 1.79086 5.66656 4H4.3149C2.80193 4 1.52572 5.12661 1.33806 6.6279L0.0880615 16.6279C-0.135758 18.4185 1.2604 20 3.06489 20H16.2682C18.0727 20 19.4689 18.4185 19.245 16.6279L17.995 6.6279C17.8074 5.12661 16.5312 4 15.0182 4H13.6666C13.6666 1.79086 11.8757 0 9.66656 0ZM11.6666 6V7C11.6666 7.55228 12.1143 8 12.6666 8C13.2188 8 13.6666 7.55228 13.6666 7V6H15.0182C15.5225 6 15.9479 6.37554 16.0105 6.87597L17.2605 16.876C17.3351 17.4728 16.8697 18 16.2682 18H3.06489C2.4634 18 1.99801 17.4728 2.07262 16.876L3.32262 6.87597C3.38517 6.37554 3.81057 6 4.3149 6H5.66656V7C5.66656 7.55228 6.11428 8 6.66656 8C7.21885 8 7.66656 7.55228 7.66656 7V6H11.6666ZM11.6666 4C11.6666 2.89543 10.7711 2 9.66656 2C8.562 2 7.66656 2.89543 7.66656 4H11.6666Z" fill="#FCFCFC"/>
</svg>
