<svg width="20" height="20" viewBox="0 0 20 20" fill="none" xmlns="http://www.w3.org/2000/svg">
<path fill-rule="evenodd" clip-rule="evenodd" d="M7.4889 3.05417C7.37598 2.5272 6.62402 2.52718 6.5111 3.05417L5.31658 8.62861C5.02017 10.0118 3.79778 11 2.38317 11H1C0.447715 11 0 10.5523 0 10C0 9.44774 0.447715 9.00002 1 9.00002H2.38317C2.85471 9.00002 3.26217 8.67062 3.36097 8.20955L4.55549 2.63511C5.12011 0.000221968 8.87988 0.000197649 9.44451 2.63511L12.5111 16.9459C12.624 17.4729 13.376 17.4728 13.4889 16.9459L14.6834 11.3714C14.9798 9.98822 16.2022 9.00002 17.6168 9.00002H19C19.5523 9.00002 20 9.44774 20 10C20 10.5523 19.5523 11 19 11H17.6168C17.1453 11 16.7378 11.3294 16.639 11.7905L15.4445 17.3649C14.8799 19.9999 11.1201 19.9998 10.5555 17.3649L7.4889 3.05417Z" fill="#FCFCFC"/>
</svg>
